<svg xmlns="http://www.w3.org/2000/svg" width="138.62" height="45.67" viewBox="0 0 138.62 45.67"><title>ananda</title><path d="M4.61,3.52V3.23C7.7,1.16,10.65,0,13.18,0A9.82,9.82,0,0,1,21,4a10.49,10.49,0,0,1,2.39,6.71,7,7,0,0,1-1.89,5,13.74,13.74,0,0,1,2.39,2c.88.92,2.28,1.38,4.29,1.38A9.88,9.88,0,0,0,34,17.33V4.39H27.28L25.59,1,25.88.6H57L58.71,4l-.28.38H52.07l.14,32.21-.35.38-3.94-1L48,4.39h-10l.14,32.21-.35.38-3.9-1,0-13a10.65,10.65,0,0,1-3.06.38,8.64,8.64,0,0,1-5.28-1.68l-.07.07A9.77,9.77,0,0,1,26,25.1c0,4.89-3.91,8.26-8.83,8.26C9.6,33.36,4.32,27.11,0,18.46v-.25l2.11-1.3c4,7.77,8.44,11.85,13.29,11.85,3.48,0,7-2.64,7-6.15,0-3-1.83-5-5.06-5a17.71,17.71,0,0,0-6.51,1.79l-2.7-4.22L8.23,15a24.68,24.68,0,0,1,8.89-2.25A5.74,5.74,0,0,0,20,8.05a3.86,3.86,0,0,0-4.15-3.69c-2.39,0-5.27,1.16-8.47,3.23Z" fill="#fff"/><path d="M55.34,1,55.62.6H88.31L90,4l-.28.38H83.36l.17,32.21-.35.38-4-1L79.35,18a48.55,48.55,0,0,0-5.24-.29,20.43,20.43,0,0,0-5.8.67v2.67a8.57,8.57,0,0,1-.35,3,2.56,2.56,0,0,1-2.36,1.33c-1.58,0-6.15-4.64-6.15-7.73,0-1.23.81-2.36,2.5-3.13a17,17,0,0,1,6.78-1.13c3.23,0,6.82.29,10.62.67V4.39H57Z" fill="#fff"/><path d="M86.63,1,86.91.6h50L138.62,4l-.28.38H130.5l0,10.45-.36.35H125c-8.16,0-12,2.56-12,7.17,0,4.08,3.13,7.21,7.94,7.21a12.16,12.16,0,0,0,5.42-1.37A4.63,4.63,0,0,1,125,24.75a4.21,4.21,0,0,1,4.25-4.08,4.79,4.79,0,0,1,3.52,1.51A5.35,5.35,0,0,1,134.4,26c0,1.9-1,3.48-3,4.82,3.66,3.34,5.07,6.08,5.07,8.26,0,2.88-1.69,4.92-4.15,6.61h-.28l-4.19-3.34c2.43-1.62,4-3.38,4-5.56,0-1.51-.77-3.09-2.46-4.78A13.82,13.82,0,0,1,123,33.4c-8.44,0-14.31-6.47-14.31-13a9.67,9.67,0,0,1,.39-2.75c-1.27-.1-2.53-.14-3.69-.14a20.39,20.39,0,0,0-5.8.67v2.88a8.57,8.57,0,0,1-.35,3,2.56,2.56,0,0,1-2.36,1.33c-1.58,0-6.15-4.64-6.15-7.7,0-1.23.81-2.35,2.49-3.12a15.9,15.9,0,0,1,6.44-1.06c2.28,0,7.73.32,11.39.74,2.11-2.11,5.48-3.2,9.56-3.2h4.89c.7,0,1-.35,1-1V4.39H88.31Z" fill="#fff"/></svg>