<svg xmlns="http://www.w3.org/2000/svg" width="800" height="349.92" viewBox="0 0 800 349.92"><title>datananda-logo-logtype-lockup</title><path d="M454.5,149.17l-6.39-6.39-.12.13c1,7-2.26,17.29-11.15,26.19-16.29,16.28-41.6,17-58.77-.13-16.91-16.91-16.78-42.35,0-59.14l18.55-18.54L365.29,60l3.89-3.89,89.21,89.21ZM400,94.67s-10.27,10.53-18.29,18.55c-14.79,14.78-14.66,37,.25,51.87s37.08,15,51.87.25c7.89-7.9,11.15-18.67,10.4-26.44Z" fill="#fff"/><path d="M466.15,42.8c3.14,4.89,4.14,13.16-2.75,20.3,7.89-5.14,20.67-2.38,28.81,5.76,10.4,10.4,11.66,24.43,2.13,34-11.15,11.15-24.55,7.51-35.08-1.26L440.72,86.28l-7.27,7.27c-9.14,9.14-6.89,20.92,2.38,30.19L432.32,127c-11.52-11.53-13.65-26.44-3.13-37l29.45-29.45C465,54.2,463.77,46.94,461,42.68Zm-21.92,40,17.91,14.91c9.27,7.77,19.92,9.65,28.44,1.13,7.65-7.64,6.27-18.55-1.88-26.69C480.94,64.35,466,61,455,72Z" fill="#fff"/><path d="M341.61,145.29l89.21-89.21L434.71,60,403.38,91.29l18.55,18.54c16.78,16.79,16.91,42.23,0,59.14-17.17,17.17-42.48,16.41-58.77.13-8.89-8.9-12.15-19.17-11.15-26.19l-.12-.13-6.39,6.39Zm14.16-6.39c-.75,7.77,2.51,18.54,10.4,26.44,14.79,14.78,37,14.66,51.87-.25s15-37.09.25-51.87c-8-8-18.29-18.55-18.29-18.55Z" fill="#fff"/><path d="M339,42.68c-2.75,4.26-4,11.52,2.38,17.91L370.81,90c10.52,10.52,8.39,25.43-3.13,37l-3.51-3.26c9.27-9.27,11.52-21,2.38-30.19l-7.27-7.27-18.54,15.28c-10.53,8.77-23.93,12.41-35.08,1.26-9.53-9.53-8.27-23.56,2.13-34,8.14-8.14,20.92-10.9,28.81-5.76-6.89-7.14-5.89-15.41-2.75-20.3ZM345,72c-11-11-25.94-7.65-33.7.12-8.15,8.14-9.53,19-1.88,26.69,8.52,8.52,19.17,6.64,28.44-1.13l17.91-14.91Z" fill="#fff"/><path d="M345.5,32.4l6.39,6.39.12-.12c-1-7,2.26-17.29,11.15-26.19,16.29-16.28,41.6-17,58.77.13,16.91,16.91,16.78,42.35,0,59.14L403.38,90.29l31.33,31.32-3.89,3.88-89.21-89.2ZM400,86.91s10.27-10.53,18.29-18.55c14.79-14.78,14.66-37-.25-51.87s-37.08-15-51.87-.25c-7.89,7.89-11.15,18.67-10.4,26.44Z" fill="#fff"/><path d="M333.85,138.78c-3.14-4.89-4.14-13.16,2.75-20.3-7.89,5.14-20.67,2.38-28.81-5.76-10.4-10.4-11.66-24.44-2.13-34,11.15-11.15,24.55-7.52,35.08,1.25L359.28,95.3,366.55,88c9.14-9.14,6.89-20.92-2.38-30.19l3.51-3.26c11.52,11.53,13.65,26.44,3.13,37L341.36,121c-6.38,6.39-5.13,13.66-2.38,17.92Zm21.92-40L337.86,83.9c-9.27-7.77-19.92-9.65-28.44-1.13-7.65,7.64-6.27,18.54,1.88,26.69,7.76,7.77,22.67,11.15,33.7.12Z" fill="#fff"/><path d="M458.39,36.29l-89.21,89.2-3.89-3.88,31.33-31.32L378.07,71.75c-16.78-16.79-16.91-42.23,0-59.14,17.17-17.17,42.48-16.41,58.77-.13C445.73,21.38,449,31.65,448,38.67l.12.12,6.39-6.39Zm-14.16,6.39c.75-7.77-2.51-18.55-10.4-26.44C419,1.46,396.87,1.58,382,16.49s-15,37.09-.25,51.87c8,8,18.29,18.55,18.29,18.55Z" fill="#fff"/><path d="M461,138.9c2.75-4.26,4-11.53-2.38-17.92L429.19,91.54c-10.52-10.52-8.39-25.43,3.13-37l3.51,3.26c-9.27,9.27-11.52,21-2.38,30.19l7.27,7.27L459.26,80c10.53-8.77,23.93-12.4,35.08-1.25,9.53,9.52,8.27,23.56-2.13,34-8.14,8.14-20.92,10.9-28.81,5.76,6.89,7.14,5.89,15.41,2.75,20.3Zm-6-29.32c11,11,25.94,7.65,33.7-.12,8.15-8.15,9.53-19,1.88-26.69-8.52-8.52-19.17-6.64-28.44,1.13L444.23,98.81Z" fill="#fff"/><path d="M595.43,348.13V286.9c0-16.31-12.13-25.25-29.23-25.25H536v86.48h-6.17V258.07h6a238.29,238.29,0,0,1,31-1.79c19.68,0,34.79,10.93,34.79,30.22v61.63Z" fill="#fff"/><path d="M795.83,349.92c-6.37-1.39-13.72-7.16-13.92-18.29-2.19,10.34-14.51,18.29-27.44,18.29-16.5,0-28.62-10.14-28.62-25.25,0-17.69,13.51-25.45,28.82-26.84l26.84-2.58V283.72c0-14.52-11.13-22.07-25.84-22.07l.19-5.37c18.3,0,31.81,10.14,31.81,26.84v46.72c0,10.14,6.76,14.91,12.33,16.1Zm-14.32-49.11-26,2.39C742,304.39,732,311.35,732,324.87c0,12.13,9.74,19.68,22.66,19.68,12.33,0,26.84-9.14,26.84-26.64Z" fill="#fff"/><path d="M509,349.92c-6.36-1.39-13.72-7.16-13.92-18.29-2.19,10.34-14.51,18.29-27.43,18.29-16.51,0-28.63-10.14-28.63-25.25,0-17.69,13.52-25.45,28.82-26.84l26.84-2.58V283.72c0-14.52-11.13-22.07-25.84-22.07l.2-5.37c18.29,0,31.81,10.14,31.81,26.84v46.72c0,10.14,6.76,14.91,12.32,16.1Zm-14.32-49.11-26,2.39c-13.52,1.19-23.46,8.15-23.46,21.67,0,12.13,9.74,19.68,22.66,19.68,12.33,0,26.84-9.14,26.84-26.64Z" fill="#fff"/><path d="M325.85,349.92c-6.37-1.39-13.72-7.16-13.92-18.29-2.19,10.34-14.51,18.29-27.44,18.29-16.5,0-28.62-10.14-28.62-25.25,0-17.69,13.51-25.45,28.82-26.84l26.84-2.58V283.72c0-14.52-11.13-22.07-25.84-22.07l.19-5.37c18.3,0,31.81,10.14,31.81,26.84v46.72c0,10.14,6.76,14.91,12.33,16.1Zm-14.32-49.11-26,2.39C272,304.39,262,311.35,262,324.87c0,12.13,9.74,19.68,22.66,19.68,12.33,0,26.84-9.14,26.84-26.64Z" fill="#fff"/><path d="M76.34,348.13V338h-.2c-4.77,6.36-15.5,11.93-29.62,11.93C20.68,349.92,0,330.43,0,303.2c0-26.84,20.28-46.92,46.92-46.92H76.34v-49.7h6.17V348.13Zm0-86.48s-16.5.2-29.22.2c-23.46,0-41,17.69-41,41.35s17.5,41.35,41,41.35c12.52,0,23.66-6,29.22-12.72Z" fill="#fff"/><path d="M173.76,349.92c-6.37-1.39-13.72-7.16-13.92-18.29-2.19,10.34-14.51,18.29-27.44,18.29-16.5,0-28.62-10.14-28.62-25.25,0-17.69,13.51-25.45,28.82-26.84l26.84-2.58V283.72c0-14.52-11.13-22.07-25.84-22.07l.2-5.37c18.29,0,31.81,10.14,31.81,26.84v46.72c0,10.14,6.75,14.91,12.32,16.1Zm-14.32-49.11-26,2.39c-13.52,1.19-23.46,8.15-23.46,21.67,0,12.13,9.74,19.68,22.66,19.68,12.33,0,26.84-9.14,26.84-26.64Z" fill="#fff"/><path d="M412.33,348.13V286.9c0-16.31-12.13-25.25-29.23-25.25H352.88v86.48h-6.16V258.07h6a238.56,238.56,0,0,1,31-1.79c19.68,0,34.79,10.93,34.79,30.22v61.63Z" fill="#fff"/><path d="M698.41,348.13V338h-.2c-4.77,6.36-15.5,11.93-29.62,11.93-25.84,0-46.52-19.49-46.52-46.72,0-26.84,20.28-46.92,46.92-46.92h29.42v-49.7h6.16V348.13Zm0-86.48s-16.5.2-29.22.2c-23.46,0-41,17.69-41,41.35s17.5,41.35,41,41.35c12.52,0,23.65-6,29.22-12.72Z" fill="#fff"/><path d="M756.76,261.65H47.12v-5.37H756.76Z" fill="#fff"/><path d="M209.94,263.44v64.61c0,10.93,6.16,15.31,13.72,15.31,4,0,8.15-1,10.54-2.59l-1,6c-2.38,1.59-6.16,2-9.94,2-10.93,0-19.28-6.75-19.28-20.47V237l6-3.19v29.63Z" fill="#fff"/></svg>