<svg xmlns="http://www.w3.org/2000/svg" width="800" height="143.34" viewBox="0 0 800 143.34"><title>datananda-logotype</title><path d="M595.43,141.55V80.32c0-16.3-12.13-25.25-29.23-25.25H536v86.48h-6.17V51.49h6a238.29,238.29,0,0,1,31-1.79c19.68,0,34.79,10.94,34.79,30.22v61.63Z" fill="#fff"/><path d="M795.83,143.34c-6.37-1.39-13.72-7.16-13.92-18.29-2.19,10.34-14.51,18.29-27.44,18.29-16.5,0-28.62-10.14-28.62-25.25,0-17.69,13.51-25.45,28.82-26.84l26.84-2.58V77.14c0-14.52-11.13-22.07-25.84-22.07l.19-5.37c18.3,0,31.81,10.14,31.81,26.84v46.72c0,10.14,6.76,14.91,12.33,16.1ZM781.51,94.23l-26,2.39C742,97.81,732,104.77,732,118.29c0,12.13,9.74,19.68,22.66,19.68,12.33,0,26.84-9.14,26.84-26.64Z" fill="#fff"/><path d="M509,143.34c-6.36-1.39-13.72-7.16-13.92-18.29-2.19,10.34-14.51,18.29-27.43,18.29-16.51,0-28.63-10.14-28.63-25.25,0-17.69,13.52-25.45,28.82-26.84l26.84-2.58V77.14c0-14.52-11.13-22.07-25.84-22.07l.2-5.37c18.29,0,31.81,10.14,31.81,26.84v46.72c0,10.14,6.76,14.91,12.32,16.1ZM494.63,94.23l-26,2.39c-13.52,1.19-23.46,8.15-23.46,21.67,0,12.13,9.74,19.68,22.66,19.68,12.33,0,26.84-9.14,26.84-26.64Z" fill="#fff"/><path d="M325.85,143.34c-6.37-1.39-13.72-7.16-13.92-18.29-2.19,10.34-14.51,18.29-27.44,18.29-16.5,0-28.62-10.14-28.62-25.25,0-17.69,13.51-25.45,28.82-26.84l26.84-2.58V77.14c0-14.52-11.13-22.07-25.84-22.07l.19-5.37c18.3,0,31.81,10.14,31.81,26.84v46.72c0,10.14,6.76,14.91,12.33,16.1ZM311.53,94.23l-26,2.39C272,97.81,262,104.77,262,118.29c0,12.13,9.74,19.68,22.66,19.68,12.33,0,26.84-9.14,26.84-26.64Z" fill="#fff"/><path d="M76.34,141.55V131.41h-.2c-4.77,6.36-15.5,11.93-29.62,11.93C20.68,143.34,0,123.86,0,96.62,0,69.78,20.28,49.7,46.92,49.7H76.34V0h6.17V141.55Zm0-86.48s-16.5.2-29.22.2c-23.46,0-41,17.69-41,41.35S23.66,138,47.12,138c12.52,0,23.66-6,29.22-12.72Z" fill="#fff"/><path d="M173.76,143.34c-6.37-1.39-13.72-7.16-13.92-18.29-2.19,10.34-14.51,18.29-27.44,18.29-16.5,0-28.62-10.14-28.62-25.25,0-17.69,13.51-25.45,28.82-26.84l26.84-2.58V77.14c0-14.52-11.13-22.07-25.84-22.07l.2-5.37c18.29,0,31.81,10.14,31.81,26.84v46.72c0,10.14,6.75,14.91,12.32,16.1ZM159.44,94.23l-26,2.39c-13.52,1.19-23.46,8.15-23.46,21.67,0,12.13,9.74,19.68,22.66,19.68,12.33,0,26.84-9.14,26.84-26.64Z" fill="#fff"/><path d="M412.33,141.55V80.32c0-16.3-12.13-25.25-29.23-25.25H352.88v86.48h-6.16V51.49h6a238.56,238.56,0,0,1,31-1.79c19.68,0,34.79,10.94,34.79,30.22v61.63Z" fill="#fff"/><path d="M698.41,141.55V131.41h-.2c-4.77,6.36-15.5,11.93-29.62,11.93-25.84,0-46.52-19.48-46.52-46.72,0-26.84,20.28-46.92,46.92-46.92h29.42V0h6.16V141.55Zm0-86.48s-16.5.2-29.22.2c-23.46,0-41,17.69-41,41.35s17.5,41.35,41,41.35c12.52,0,23.65-6,29.22-12.72Z" fill="#fff"/><path d="M756.76,55.07H47.12V49.7H756.76Z" fill="#fff"/><path d="M209.94,56.86v64.61c0,10.93,6.16,15.31,13.72,15.31,4,0,8.15-1,10.54-2.58l-1,6c-2.38,1.59-6.16,2-9.94,2-10.93,0-19.28-6.76-19.28-20.48V30.42l6-3.18V56.86Z" fill="#fff"/></svg>