<svg xmlns="http://www.w3.org/2000/svg" width="200" height="180.13" viewBox="0 0 200 180.13"><title>datananda_logotype</title><path d="M154.07,148l-6.34-6.34-.13.12c1,7-2.23,17.16-11.06,26-16.16,16.16-41.26,16.9-58.29-.12-16.78-16.78-16.66-42,0-58.67l18.39-18.4L65.57,59.49l3.85-3.85,88.5,88.49ZM100,93.92s-10.19,10.44-18.15,18.4C67.19,127,67.31,149,82.1,163.77s36.79,14.92,51.46.25c7.83-7.83,11.06-18.52,10.32-26.22Z" fill="#fff"/><path d="M165.63,42.46c3.1,4.85,4.1,13-2.74,20.14,7.83-5.1,20.51-2.36,28.59,5.72C201.8,78.63,203,92.55,193.59,102c-11.06,11.06-24.36,7.46-34.8-1.24l-18.4-15.17-7.2,7.21c-9.08,9.07-6.84,20.76,2.36,30L132.07,126c-11.44-11.44-13.55-26.23-3.11-36.67l29.21-29.21c6.34-6.34,5.09-13.55,2.36-17.77ZM143.88,82.11,161.65,96.9c9.2,7.71,19.76,9.57,28.21,1.12,7.58-7.58,6.22-18.39-1.86-26.47-7.71-7.71-22.5-11.06-33.44-.13Z" fill="#fff"/><path d="M42.08,144.13l88.5-88.49,3.85,3.85L103.36,90.56,121.75,109c16.66,16.65,16.78,41.89,0,58.67-17,17-42.13,16.28-58.29.12-8.83-8.82-12.06-19-11.06-26l-.13-.12L45.93,148Zm14-6.33c-.74,7.7,2.49,18.39,10.32,26.22,14.67,14.67,36.67,14.54,51.46-.25s14.91-36.79.25-51.45c-8-8-18.15-18.4-18.15-18.4Z" fill="#fff"/><path d="M39.47,42.34c-2.73,4.22-4,11.43,2.36,17.77L71,89.32c10.44,10.44,8.33,25.23-3.11,36.67l-3.48-3.23c9.2-9.2,11.44-20.89,2.36-30l-7.2-7.21-18.4,15.17c-10.44,8.7-23.74,12.3-34.8,1.24C-3,92.55-1.8,78.63,8.52,68.32,16.6,60.24,29.28,57.5,37.11,62.6c-6.84-7.09-5.84-15.29-2.74-20.14Zm6,29.08C34.5,60.49,19.71,63.84,12,71.55,3.92,79.63,2.56,90.44,10.14,98c8.45,8.45,19,6.59,28.21-1.12L56.12,82.11Z" fill="#fff"/><path d="M45.93,32.15l6.34,6.34.13-.13c-1-7,2.23-17.15,11.06-26,16.16-16.15,41.26-16.9,58.29.13,16.78,16.78,16.66,42,0,58.66l-18.39,18.4,31.07,31.07-3.85,3.86L42.08,36ZM100,86.21s10.19-10.44,18.15-18.39c14.66-14.67,14.54-36.67-.25-51.46S81.11,1.45,66.44,16.11c-7.83,7.83-11.06,18.52-10.32,26.23Z" fill="#fff"/><path d="M34.37,137.67c-3.1-4.85-4.1-13,2.74-20.13-7.83,5.09-20.51,2.36-28.59-5.72C-1.8,101.5-3,87.58,6.41,78.13c11.06-11.06,24.36-7.45,34.8,1.25l18.4,15.16,7.2-7.21c9.08-9.07,6.84-20.75-2.36-29.95l3.48-3.23C79.37,65.58,81.48,80.37,71,90.81L41.83,120c-6.34,6.34-5.09,13.55-2.36,17.78ZM56.12,98,38.35,83.23c-9.2-7.71-19.76-9.57-28.21-1.12-7.58,7.58-6.22,18.4,1.86,26.48,7.71,7.7,22.5,11.06,33.44.12Z" fill="#fff"/><path d="M157.92,36l-88.5,88.5-3.85-3.86L96.64,89.57,78.25,71.17c-16.66-16.65-16.78-41.88,0-58.66,17-17,42.13-16.28,58.29-.13,8.83,8.83,12.06,19,11.06,26l.13.13,6.34-6.34Zm-14,6.34c.74-7.71-2.49-18.4-10.32-26.23C118.89,1.45,96.89,1.57,82.1,16.36s-14.91,36.79-.25,51.46c8,8,18.15,18.39,18.15,18.39Z" fill="#fff"/><path d="M160.53,137.8c2.73-4.23,4-11.44-2.36-17.78L129,90.81c-10.44-10.44-8.33-25.23,3.11-36.66l3.48,3.23c-9.2,9.2-11.44,20.88-2.36,29.95l7.2,7.21,18.4-15.16c10.44-8.7,23.74-12.31,34.8-1.25,9.45,9.45,8.21,23.37-2.11,33.69-8.08,8.08-20.76,10.81-28.59,5.72,6.84,7.08,5.84,15.28,2.74,20.13Zm-6-29.09c10.94,10.94,25.73,7.58,33.44-.12,8.08-8.08,9.44-18.9,1.86-26.48-8.45-8.45-19-6.59-28.21,1.12L143.88,98Z" fill="#fff"/></svg>